<svg width="140" height="47" viewBox="0 0 140 47" fill="none" xmlns="http://www.w3.org/2000/svg">
<ellipse cx="35.2507" cy="6.8729" rx="4.43038" ry="4.21226" fill="#863CFF"/>
<path fill-rule="evenodd" clip-rule="evenodd" d="M50.5062 0V16.0193C52.7614 14.8496 55.3227 14.1888 58.0381 14.1888C67.0914 14.1888 74.4305 21.5338 74.4305 30.5944C74.4305 39.655 67.0914 47 58.0381 47C48.9849 47 41.6457 39.655 41.6457 30.5944V30.5942H41.6454V2.48578L50.5062 0ZM28.7974 2.66064H0V10.6417H4.04248e-05L4.02487e-05 44.4622L9.30382 47L9.30382 29.7074H28.7975V21.2829H9.30382L9.30382 10.6417H28.7974V2.66064ZM39.4305 47V14.1888L30.5698 16.8547V47H39.4305ZM105.443 31.9247C105.443 33.9043 105.065 35.8646 104.33 37.6936C103.595 39.5226 102.518 41.1845 101.161 42.5844C99.8031 43.9843 98.1914 45.0947 96.4175 45.8524C94.6437 46.61 92.7426 46.9999 90.8226 46.9999C88.9027 46.9999 87.0015 46.61 85.2277 45.8524C83.4539 45.0947 81.8422 43.9843 80.4846 42.5844C79.1269 41.1845 78.05 39.5226 77.3153 37.6936C76.5806 35.8646 76.2024 33.9042 76.2024 31.9245H76.2025V14.1888H85.0632V31.9245H85.0661C85.0661 32.704 85.215 33.4758 85.5043 34.196C85.7936 34.9162 86.2176 35.5705 86.7521 36.1217C87.2867 36.6729 87.9213 37.1101 88.6197 37.4084C89.3181 37.7067 90.0667 37.8602 90.8226 37.8602C91.5786 37.8602 92.3271 37.7067 93.0256 37.4084C93.724 37.1101 94.3586 36.6729 94.8931 36.1217C95.4276 35.5705 95.8517 34.9162 96.141 34.196C96.4303 33.4758 96.5791 32.704 96.5791 31.9245H96.5823V14.1889H105.443V31.9247H105.443ZM58.0378 38.1321C62.1974 38.1321 65.5695 34.7574 65.5695 30.5944C65.5695 26.4314 62.1974 23.0567 58.0378 23.0567C53.8782 23.0567 50.5062 26.4314 50.5062 30.5944C50.5062 34.7574 53.8782 38.1321 58.0378 38.1321ZM131.139 16.019L131.139 1.55415e-05L140 2.47883V27.4904H140V46.9505H131.444V45.007C129.116 46.2777 126.446 46.9999 123.607 46.9999C114.554 46.9999 107.215 39.6548 107.215 30.5943C107.215 21.5337 114.554 14.1886 123.607 14.1886C126.323 14.1886 128.884 14.8494 131.139 16.019ZM123.608 38.1321C127.767 38.1321 131.139 34.7573 131.139 30.5944C131.139 26.4314 127.767 23.0566 123.608 23.0566C119.448 23.0566 116.076 26.4314 116.076 30.5944C116.076 34.7573 119.448 38.1321 123.608 38.1321Z" fill="#F9F9F9"/>
</svg>
